<?xml version="1.0" encoding="utf-8"?>
<!-- Generator: Adobe Illustrator 22.0.1, SVG Export Plug-In . SVG Version: 6.00 Build 0)  -->
<svg version="1.1" id="Layer_1" xmlns="http://www.w3.org/2000/svg" xmlns:xlink="http://www.w3.org/1999/xlink" x="0px" y="0px"
	 viewBox="0 0 450 468" style="enable-background:new 0 0 450 468;" xml:space="preserve">
<style type="text/css">
	.st0{fill:none;stroke:#000000;stroke-width:0.9;}
</style>
<g transform="translate(22.5, 22.5) ">
	<polygon class="st0" points="-4.5,-4.5 -4.5,211.5 175.5,211.5 175.5,-4.5 	"/>
</g>
<g transform="translate(247.5, 22.5) ">
	<polyline class="st0" points="-49.5,-4.5 130.5,-4.5 130.5,211.5 -49.5,211.5 	"/>
</g>
<g transform="translate(461.88, 33.12) ">
	<polyline class="st0" points="-83.9,1.9 -46.9,1.9 -46.9,200.9 -83.9,200.9 	"/>
</g>
<g transform="translate(461.88, 281.88) ">
	<polyline class="st0" points="-46.9,-47.9 -46.9,151.1 -83.9,151.1 -83.9,-10.9 	"/>
</g>
<g transform="translate(22.5, 281.88) ">
	<polyline class="st0" points="-4.5,-47.9 -4.5,-10.9 175.5,-10.9 175.5,-47.9 	"/>
</g>
<g transform="translate(247.5, 281.88) ">
	<polyline class="st0" points="-49.5,-10.9 130.5,-10.9 130.5,-47.9 	"/>
</g>
<g>
	<g>
		<path d="M92.1,78.8h-26c-3.4,0-6.3,2.9-6.3,6c0,3.1,2.8,6,6.3,6h26c3.4,0,6.3-2.9,6.3-6C98.4,81.7,95.6,78.8,92.1,78.8z
			 M74.9,86.9h-8.8c-1.2,0-2.2-1.2-2.2-2.4c0-1.2,1-2.4,2.2-2.4h8.8V86.9z M92.1,86.9h-8.8v-4.8h8.8c1.2,0,2.2,1.2,2.2,2.4
			C94.3,85.7,93.3,86.9,92.1,86.9z"/>
		<path d="M117.7,104.2h-3.5c-1.7,0-3.2,1.6-3.3,3.3l-3.8-10.7c-0.6-1.8-2.9-3.1-5.2-3.1H56.2c-2.2,0-4.5,1.2-5.2,3.1l-3.8,10.7
			c-0.1-1.7-1.6-3.3-3.3-3.3h-3.5c-1.8,0-2.8,1.9-2.8,3.8v0.4c0,1.8,1,3.5,2.8,3.5h3.5c0.5,0,1-0.2,1.4-0.4c-0.7,0.6-1,1.4-1,2.4
			v0.8c-2.9,0.9-4.8,3.7-4.8,7.1v3.9c-1,0.2-1.9,1-1.9,2v19.7c0,1.1,0.4,1.7,1.5,1.7h13.8V142c0-1.1,0.3-2.5,1.5-2.5h48.5v-2.2
			c0-3.8,1.5-7.3,4-9.9c-3.5,0.3-6.4-0.8-6.9-2.8c-0.6-2.4,2.6-5.4,7.1-6.5c4.5-1.1,8.7-0.1,9.3,2.3c0.2,0.9,0,1.8-0.7,2.6
			c0.5-0.1,0.9-0.1,1.4-0.1h1.5v-1.3c0-3.4-1.9-6.2-4.8-7.1v-0.8c0-1-0.3-1.8-1-2.4c0.4,0.2,0.9,0.4,1.4,0.4h3.5
			c1.8,0,2.8-1.7,2.8-3.5v-0.4C120.6,106.1,119.6,104.2,117.7,104.2z M46.1,110.7L46.1,110.7C46.1,110.7,46.1,110.7,46.1,110.7
			C46.1,110.7,46.1,110.7,46.1,110.7z M58.2,124.7c-0.6,2.4-4.8,3.5-9.3,2.3c-4.5-1.2-7.7-4.1-7.1-6.5c0.6-2.4,4.8-3.5,9.3-2.3
			C55.6,119.3,58.8,122.2,58.2,124.7z M52.4,109.9l1.3-10.9c0.2-1.7,1.8-2.4,3.6-2.4h43.5c1.8,0,3.4,0.8,3.6,2.4l1.3,10.9H52.4z
			 M112.1,110.7L112.1,110.7C112.1,110.7,112.1,110.7,112.1,110.7C112.1,110.7,112.1,110.7,112.1,110.7z"/>
	</g>
	<path d="M167.5,96.1c0,11.8-9.6,21.4-21.4,21.4c-11.8,0-21.4-9.6-21.4-21.4c0-2.4,0.4-4.7,1.1-6.9c5.2,3.9,12.2,5.7,20,5.7
		c8,0,15.2-2,20.5-6.1C167,91.1,167.5,93.5,167.5,96.1z"/>
	<path d="M186.6,175.7v-38.4c0-6.4-5.2-11.6-11.6-11.6h-57.9c-6.4,0-11.6,5.2-11.6,11.6v38.4C105.6,175.7,186.6,175.7,186.6,175.7z"
		/>
	<path d="M165.7,87c-9.5,2-29.5,2.1-39.8,0c0,0,1.6,1.7,3.4,2.8c0,0,0,0,0-0.1c2.8,1.7,7.8,3.6,17.1,3.6v0.1c8,0,13.7-1.9,16.5-3.6
		c0,0,1.6-1.1,2.9-2.5C165.8,87.2,165.8,87.1,165.7,87z"/>
	<path d="M165.6,84.6c0,0,0-8.9,3.8-12.6c0,0-6.5-0.3-9.6-5.7c0,0-8.2,4-13.8-2.6h0c-5.7,6.7-13.8,2.6-13.8,2.6
		c-3.1,5.4-9.7,5.7-9.7,5.7c3.8,3.8,3.8,12.6,3.8,12.6c7.2,1.2,19.1,1.2,19.7,1.2C146.5,85.7,158.4,85.8,165.6,84.6z M150.7,73.9
		c1.6,2.7,1,5.4-1.2,6.7c-1.7,1-3,2.3-3,2.3v0l0,0v0c0,0-1.7-1.3-3.5-2.3c-2.2-1.3-3.1-4-1.5-6.7c1.2-2.1-0.6-2.9-0.6-2.9
		c1.3-1.2,1.6-1.8,1.6-1.8c2.8,0.4,3.9-0.8,3.9-0.8v0v0l0,0c0,0,0.7,1.2,3.4,0.8c0,0-0.1,0.6,1.3,1.8
		C151.2,71,149.5,71.8,150.7,73.9z"/>
</g>
</svg>
