<svg xmlns="http://www.w3.org/2000/svg" xmlns:xlink="http://www.w3.org/1999/xlink" version="1.1" x="0px" y="0px" viewBox="0 0 100 125" enable-background="new 0 0 100 100" xml:space="preserve"><g><g><path fill="#000000" d="M41.972,33.602H31.517c-1.385,0-2.511,1.163-2.511,2.394c0,1.234,1.125,2.396,2.511,2.396h10.455    c1.386,0,2.512-1.161,2.512-2.396C44.484,34.765,43.358,33.602,41.972,33.602z M35.068,36.854h-3.551    c-0.477,0-0.864-0.485-0.864-0.962s0.387-0.96,0.864-0.96h3.551V36.854z M41.972,36.854h-3.551v-1.922h3.551    c0.477,0,0.865,0.483,0.865,0.96S42.449,36.854,41.972,36.854z"/><path fill="#000000" d="M52.271,43.771h-1.397c-0.7,0-1.273,0.632-1.323,1.322l-1.532-4.313c-0.258-0.733-1.182-1.235-2.081-1.235    H27.55c-0.897,0-1.821,0.502-2.079,1.235l-1.532,4.313c-0.05-0.69-0.623-1.322-1.323-1.322h-1.398    c-0.734,0-1.135,0.77-1.135,1.508v0.148c0,0.736,0.4,1.418,1.135,1.418h1.398c0.188,0,0.406-0.081,0.565-0.152    c-0.275,0.244-0.41,0.558-0.41,0.957v0.338c-1.152,0.354-1.921,1.494-1.921,2.849v1.57c-0.384,0.07-0.767,0.403-0.767,0.803v7.929    c0,0.452,0.17,0.693,0.618,0.693h5.529v-2.844c0-0.449,0.14-0.997,0.588-0.997h19.484v-0.903c0-1.543,0.613-2.944,1.61-3.974    c-1.406,0.125-2.562-0.304-2.759-1.106c-0.242-0.982,1.033-2.151,2.851-2.614c1.815-0.462,3.482-0.039,3.726,0.941    c0.083,0.342-0.017,0.707-0.262,1.059c0.183-0.021,0.369-0.028,0.557-0.028h0.616v-0.528c0-1.354-0.77-2.495-1.921-2.849v-0.338    c0-0.399-0.135-0.713-0.411-0.957c0.16,0.071,0.378,0.152,0.566,0.152h1.397c0.733,0,1.136-0.682,1.136-1.418v-0.148    C53.407,44.54,53.004,43.771,52.271,43.771z M23.507,46.413l-0.003,0.005c-0.002,0.002-0.006,0.003-0.01,0.005    C23.498,46.42,23.501,46.418,23.507,46.413z M28.337,52.007c-0.243,0.98-1.912,1.402-3.727,0.941    c-1.817-0.464-3.09-1.633-2.851-2.614c0.243-0.98,1.911-1.403,3.726-0.941C27.303,49.855,28.578,51.024,28.337,52.007z     M26.021,46.076l0.53-4.397c0.077-0.678,0.73-0.982,1.464-0.982h17.459c0.732,0,1.386,0.305,1.462,0.982l0.531,4.397H26.021z     M49.985,46.418l-0.001-0.005c0.004,0.005,0.006,0.007,0.011,0.01C49.99,46.421,49.989,46.42,49.985,46.418z"/></g><path fill-rule="evenodd" clip-rule="evenodd" fill="#000000" d="M72.248,40.534c0,4.75-3.852,8.602-8.601,8.602   c-4.75,0-8.602-3.852-8.602-8.602c0-0.97,0.16-1.9,0.457-2.77c2.085,1.547,4.91,2.281,8.017,2.281c3.209,0,6.115-0.797,8.219-2.434   C72.068,38.524,72.248,39.508,72.248,40.534z"/><path fill-rule="evenodd" clip-rule="evenodd" fill="#000000" d="M79.917,72.534V57.087c0-2.567-2.081-4.649-4.65-4.649H52.024   c-2.568,0-4.648,2.082-4.648,4.649v15.447H79.917z"/><path fill="#000000" d="M71.557,36.868c-3.831,0.785-11.87,0.846-16.003,0c0,0,0.65,0.68,1.368,1.124   c0.003-0.008,0.004-0.018,0.004-0.024c1.137,0.689,3.116,1.45,6.872,1.46v0.023c3.22,0,5.49-0.755,6.62-1.449   c0,0,0.649-0.444,1.155-0.99C71.567,36.964,71.563,36.915,71.557,36.868z"/><path fill="#000000" d="M71.515,35.914c0,0,0.004-3.562,1.519-5.077c0,0-2.625-0.124-3.873-2.308c0,0-3.307,1.617-5.548-1.063   H63.61c-2.3,2.681-5.551,1.063-5.551,1.063c-1.247,2.184-3.882,2.299-3.882,2.299c1.514,1.516,1.514,5.08,1.514,5.08   c2.91,0.479,7.676,0.469,7.911,0.468C63.836,36.377,68.601,36.392,71.515,35.914z M65.497,31.613   c0.624,1.09,0.384,2.171-0.484,2.685c-0.699,0.417-1.212,0.927-1.212,0.935V35.22l0,0v0.013c0-0.008-0.698-0.518-1.398-0.935   c-0.871-0.514-1.245-1.595-0.621-2.685c0.483-0.848-0.229-1.176-0.229-1.176c0.541-0.468,0.662-0.721,0.662-0.721   c1.115,0.167,1.585-0.31,1.585-0.321v-0.002v0.002l0,0c0,0.012,0.276,0.488,1.386,0.321c0,0-0.027,0.253,0.513,0.721   C65.699,30.438,65.015,30.766,65.497,31.613z"/></g><text x="0" y="115" fill="#000000" font-size="5px" font-weight="bold" font-family="'Helvetica Neue', Helvetica, Arial-Unicode, Arial, Sans-serif">Created by www.yugudesign.com</text><text x="0" y="120" fill="#000000" font-size="5px" font-weight="bold" font-family="'Helvetica Neue', Helvetica, Arial-Unicode, Arial, Sans-serif">from the Noun Project</text></svg>